<mxfile host="app.diagrams.net" modified="2021-03-19T19:56:42.209Z" agent="5.0 (Macintosh; Intel Mac OS X 10_15_6) AppleWebKit/605.1.15 (KHTML, like Gecko) Version/14.0.3 Safari/605.1.15" etag="a-SudENCrE6HklfwEV6c" version="14.4.8" type="github">
  <diagram id="izxRxvWcjCqFENCOlh0H" name="Page-1">
    <mxGraphModel dx="786" dy="688" grid="1" gridSize="10" guides="1" tooltips="1" connect="1" arrows="1" fold="1" page="1" pageScale="1" pageWidth="850" pageHeight="1100" math="0" shadow="0">
      <root>
        <mxCell id="0" />
        <mxCell id="1" parent="0" />
        <mxCell id="_gX1UdI8NQmRdMBdiHDg-1" value="Actor" style="shape=umlActor;verticalLabelPosition=bottom;verticalAlign=top;html=1;outlineConnect=0;" parent="1" vertex="1">
          <mxGeometry x="40" y="100" width="30" height="60" as="geometry" />
        </mxCell>
        <mxCell id="_gX1UdI8NQmRdMBdiHDg-2" value="Actor" style="shape=umlActor;verticalLabelPosition=bottom;verticalAlign=top;html=1;outlineConnect=0;" parent="1" vertex="1">
          <mxGeometry x="730" y="100" width="30" height="60" as="geometry" />
        </mxCell>
        <mxCell id="_gX1UdI8NQmRdMBdiHDg-18" style="edgeStyle=orthogonalEdgeStyle;rounded=0;orthogonalLoop=1;jettySize=auto;html=1;exitX=0.85;exitY=0.5;exitDx=0;exitDy=0;exitPerimeter=0;dashed=1;startArrow=block;startFill=1;endArrow=block;endFill=1;fontSize=10;" parent="1" source="_gX1UdI8NQmRdMBdiHDg-3" target="_gX1UdI8NQmRdMBdiHDg-16" edge="1">
          <mxGeometry relative="1" as="geometry">
            <Array as="points">
              <mxPoint x="185" y="125" />
            </Array>
          </mxGeometry>
        </mxCell>
        <mxCell id="_gX1UdI8NQmRdMBdiHDg-3" value="IRC Client&lt;br&gt;IRC Server" style="fontColor=#0066CC;verticalAlign=top;verticalLabelPosition=bottom;labelPosition=center;align=center;html=1;outlineConnect=0;fillColor=#CCCCCC;strokeColor=#6881B3;gradientColor=none;gradientDirection=north;strokeWidth=2;shape=mxgraph.networks.laptop;" parent="1" vertex="1">
          <mxGeometry x="100" y="110" width="50" height="30" as="geometry" />
        </mxCell>
        <mxCell id="_gX1UdI8NQmRdMBdiHDg-15" style="edgeStyle=orthogonalEdgeStyle;rounded=0;orthogonalLoop=1;jettySize=auto;html=1;exitX=0;exitY=0.5;exitDx=0;exitDy=0;exitPerimeter=0;entryX=0.5;entryY=0;entryDx=0;entryDy=0;entryPerimeter=0;startArrow=block;startFill=1;endArrow=block;endFill=1;dashed=1;" parent="1" source="_gX1UdI8NQmRdMBdiHDg-5" target="_gX1UdI8NQmRdMBdiHDg-6" edge="1">
          <mxGeometry relative="1" as="geometry" />
        </mxCell>
        <mxCell id="_gX1UdI8NQmRdMBdiHDg-5" value="IRC Client" style="fontColor=#0066CC;verticalAlign=top;verticalLabelPosition=bottom;labelPosition=center;align=center;html=1;outlineConnect=0;fillColor=#CCCCCC;strokeColor=#6881B3;gradientColor=none;gradientDirection=north;strokeWidth=2;shape=mxgraph.networks.mobile;" parent="1" vertex="1">
          <mxGeometry x="690" y="90" width="20" height="30" as="geometry" />
        </mxCell>
        <mxCell id="_gX1UdI8NQmRdMBdiHDg-14" style="edgeStyle=orthogonalEdgeStyle;rounded=0;orthogonalLoop=1;jettySize=auto;html=1;exitX=0;exitY=0.5;exitDx=0;exitDy=0;exitPerimeter=0;entryX=1;entryY=0.5;entryDx=0;entryDy=0;entryPerimeter=0;startArrow=block;startFill=1;endArrow=block;endFill=1;" parent="1" source="_gX1UdI8NQmRdMBdiHDg-6" target="_gX1UdI8NQmRdMBdiHDg-12" edge="1">
          <mxGeometry relative="1" as="geometry" />
        </mxCell>
        <mxCell id="bAeK_c9cjbpcS5hZIpPj-8" style="edgeStyle=orthogonalEdgeStyle;rounded=0;orthogonalLoop=1;jettySize=auto;html=1;dashed=1;startArrow=block;startFill=1;endArrow=block;endFill=1;entryX=0.5;entryY=0;entryDx=0;entryDy=0;" edge="1" parent="1" source="_gX1UdI8NQmRdMBdiHDg-6" target="bAeK_c9cjbpcS5hZIpPj-4">
          <mxGeometry relative="1" as="geometry">
            <mxPoint x="710" y="350" as="targetPoint" />
            <mxPoint x="680" y="205" as="sourcePoint" />
            <Array as="points">
              <mxPoint x="710" y="210" />
            </Array>
          </mxGeometry>
        </mxCell>
        <mxCell id="_gX1UdI8NQmRdMBdiHDg-6" value="IRC Server&lt;br&gt;Juliet Bot" style="fontColor=#0066CC;verticalAlign=top;verticalLabelPosition=bottom;labelPosition=center;align=center;html=1;outlineConnect=0;fillColor=#CCCCCC;strokeColor=#6881B3;gradientColor=none;gradientDirection=north;strokeWidth=2;shape=mxgraph.networks.desktop_pc;" parent="1" vertex="1">
          <mxGeometry x="640" y="175" width="30" height="60" as="geometry" />
        </mxCell>
        <mxCell id="_gX1UdI8NQmRdMBdiHDg-11" value="&lt;font color=&quot;#0066cc&quot;&gt;D-STAR Radio&lt;/font&gt;" style="shape=mxgraph.signs.tech.cell_phone;html=1;pointerEvents=1;fillColor=#000000;strokeColor=none;verticalLabelPosition=bottom;verticalAlign=top;align=center;" parent="1" vertex="1">
          <mxGeometry x="260" y="185" width="20" height="50" as="geometry" />
        </mxCell>
        <mxCell id="_gX1UdI8NQmRdMBdiHDg-13" value="" style="group" parent="1" vertex="1" connectable="0">
          <mxGeometry x="490" y="120" width="70" height="130" as="geometry" />
        </mxCell>
        <mxCell id="_gX1UdI8NQmRdMBdiHDg-10" value="" style="fontColor=#0066CC;verticalAlign=top;verticalLabelPosition=bottom;labelPosition=center;align=center;html=1;outlineConnect=0;fillColor=#CCCCCC;strokeColor=#6881B3;gradientColor=none;gradientDirection=north;strokeWidth=2;shape=mxgraph.networks.radio_tower;" parent="_gX1UdI8NQmRdMBdiHDg-13" vertex="1">
          <mxGeometry x="7.5" width="55" height="100" as="geometry" />
        </mxCell>
        <mxCell id="_gX1UdI8NQmRdMBdiHDg-12" value="D-STAR Radio" style="fontColor=#0066CC;verticalAlign=top;verticalLabelPosition=bottom;labelPosition=center;align=center;html=1;outlineConnect=0;fillColor=#CCCCCC;strokeColor=#6881B3;gradientColor=none;gradientDirection=north;strokeWidth=2;shape=mxgraph.networks.load_balancer;" parent="_gX1UdI8NQmRdMBdiHDg-13" vertex="1">
          <mxGeometry y="109" width="70" height="21" as="geometry" />
        </mxCell>
        <mxCell id="_gX1UdI8NQmRdMBdiHDg-17" style="edgeStyle=orthogonalEdgeStyle;rounded=0;orthogonalLoop=1;jettySize=auto;html=1;exitX=1;exitY=0.5;exitDx=0;exitDy=0;startArrow=block;startFill=1;endArrow=block;endFill=1;fontSize=10;" parent="1" source="_gX1UdI8NQmRdMBdiHDg-16" target="_gX1UdI8NQmRdMBdiHDg-11" edge="1">
          <mxGeometry relative="1" as="geometry" />
        </mxCell>
        <mxCell id="_gX1UdI8NQmRdMBdiHDg-16" value="Raspberry Pi" style="rounded=1;whiteSpace=wrap;html=1;fontSize=10;" parent="1" vertex="1">
          <mxGeometry x="150" y="195" width="70" height="30" as="geometry" />
        </mxCell>
        <mxCell id="bAeK_c9cjbpcS5hZIpPj-7" style="edgeStyle=orthogonalEdgeStyle;rounded=0;orthogonalLoop=1;jettySize=auto;html=1;exitX=0.5;exitY=1;exitDx=0;exitDy=0;entryX=0.5;entryY=0;entryDx=0;entryDy=0;dashed=1;startArrow=block;startFill=1;endArrow=block;endFill=1;" edge="1" parent="1" source="_gX1UdI8NQmRdMBdiHDg-19" target="bAeK_c9cjbpcS5hZIpPj-3">
          <mxGeometry relative="1" as="geometry" />
        </mxCell>
        <mxCell id="_gX1UdI8NQmRdMBdiHDg-19" value="Juliet Bot" style="text;html=1;align=center;verticalAlign=middle;whiteSpace=wrap;rounded=0;fontSize=12;fontColor=#0066CC;" parent="1" vertex="1">
          <mxGeometry x="150" y="225" width="70" height="20" as="geometry" />
        </mxCell>
        <mxCell id="bAeK_c9cjbpcS5hZIpPj-1" value="" style="endArrow=none;html=1;" edge="1" parent="1">
          <mxGeometry width="50" height="50" relative="1" as="geometry">
            <mxPoint x="40" y="300" as="sourcePoint" />
            <mxPoint x="760" y="300" as="targetPoint" />
          </mxGeometry>
        </mxCell>
        <mxCell id="bAeK_c9cjbpcS5hZIpPj-2" value="Future - Reflectors" style="text;html=1;strokeColor=none;fillColor=none;align=center;verticalAlign=middle;whiteSpace=wrap;rounded=0;" vertex="1" parent="1">
          <mxGeometry x="50" y="310" width="130" height="20" as="geometry" />
        </mxCell>
        <mxCell id="bAeK_c9cjbpcS5hZIpPj-6" style="edgeStyle=orthogonalEdgeStyle;rounded=0;orthogonalLoop=1;jettySize=auto;html=1;exitX=1;exitY=0.5;exitDx=0;exitDy=0;entryX=0;entryY=0.5;entryDx=0;entryDy=0;dashed=1;startArrow=block;startFill=1;endArrow=block;endFill=1;" edge="1" parent="1" source="bAeK_c9cjbpcS5hZIpPj-3" target="bAeK_c9cjbpcS5hZIpPj-5">
          <mxGeometry relative="1" as="geometry" />
        </mxCell>
        <mxCell id="bAeK_c9cjbpcS5hZIpPj-3" value="juliet.im" style="rounded=1;whiteSpace=wrap;html=1;" vertex="1" parent="1">
          <mxGeometry x="190" y="360" width="120" height="60" as="geometry" />
        </mxCell>
        <mxCell id="bAeK_c9cjbpcS5hZIpPj-4" value="juliet.local" style="rounded=1;whiteSpace=wrap;html=1;" vertex="1" parent="1">
          <mxGeometry x="650" y="360" width="120" height="60" as="geometry" />
        </mxCell>
        <mxCell id="bAeK_c9cjbpcS5hZIpPj-5" value="juliet.chat" style="rounded=1;whiteSpace=wrap;html=1;" vertex="1" parent="1">
          <mxGeometry x="360" y="360" width="120" height="60" as="geometry" />
        </mxCell>
      </root>
    </mxGraphModel>
  </diagram>
</mxfile>
